<svg width="46" height="46" fill="#512da8" viewBox="0 0 24 24" xmlns="http://www.w3.org/2000/svg">
  <path fill-rule="evenodd" d="M15.75 20.75a5 5 0 1 0 0-10 5 5 0 0 0 0 10Zm6.25-5a6.25 6.25 0 1 1-12.5 0 6.25 6.25 0 0 1 12.5 0Z" clip-rule="evenodd"></path>
  <path d="M13.798 16.93c.059.745.647 1.325 1.704 1.395v.55h.468v-.554c1.094-.076 1.733-.661 1.733-1.509 0-.772-.488-1.17-1.363-1.375l-.37-.087v-1.5c.47.054.768.31.84.665h.822c-.06-.719-.675-1.28-1.662-1.341v-.549h-.468v.563c-.934.09-1.57.652-1.57 1.447 0 .703.473 1.15 1.26 1.332l.31.077v1.59c-.48-.073-.8-.338-.87-.704h-.834Zm1.7-1.692c-.461-.107-.711-.325-.711-.653 0-.368.27-.643.715-.723v1.376h-.004Zm.54.932c.561.13.819.34.819.711 0 .424-.322.714-.887.768v-1.494l.068.015Z"></path>
  <path d="M3.25 2A1.25 1.25 0 0 0 2 3.25v10a1.25 1.25 0 0 0 1.25 1.25h5.104c.072-.43.181-.848.322-1.25H5.75a2.5 2.5 0 0 0-2.5-2.5v-5a2.5 2.5 0 0 0 2.5-2.5h12.5a2.5 2.5 0 0 0 2.5 2.5v4.41c.475.425.896.91 1.25 1.442V3.25A1.25 1.25 0 0 0 20.75 2H3.25Z"></path>
  <path d="m14.498 8.354.002-.104a2.5 2.5 0 1 0-3.915 2.063 7.477 7.477 0 0 1 3.912-1.959Z"></path>
</svg>