<svg width="46" height="46" fill="#512da8" viewBox="0 0 24 24" xmlns="http://www.w3.org/2000/svg">
  <path d="M21.6 11.2c0 4.64-4.298 8.4-9.6 8.4-.95.002-1.897-.121-2.816-.366-.7.355-2.31 1.036-5.017 1.48-.24.039-.423-.21-.328-.434.425-1.003.809-2.34.924-3.56C3.293 15.246 2.4 13.314 2.4 11.2c0-4.637 4.3-8.4 9.6-8.4 5.302 0 9.6 3.762 9.6 8.4ZM7.8 7.6a.6.6 0 0 0 0 1.2h8.4a.6.6 0 1 0 0-1.2H7.8Zm0 3a.6.6 0 1 0 0 1.2h8.4a.6.6 0 0 0 0-1.2H7.8Zm0 3a.6.6 0 1 0 0 1.2h4.8a.6.6 0 0 0 0-1.2H7.8Z"></path>
</svg>