<svg width="46" height="46" fill="#512da8" viewBox="0 0 24 24" xmlns="http://www.w3.org/2000/svg">
  <path d="M2.4 7.2a2.4 2.4 0 0 1 2.4-2.4h14.4a2.4 2.4 0 0 1 2.4 2.4v9.6a2.4 2.4 0 0 1-2.4 2.4H4.8a2.4 2.4 0 0 1-2.4-2.4V7.2Zm3 1.2a.6.6 0 0 0-.6.6v1.2a.6.6 0 0 0 .6.6h2.4a.6.6 0 0 0 .6-.6V9a.6.6 0 0 0-.6-.6H5.4Zm0 3.6a.6.6 0 1 0 0 1.2h6a.6.6 0 1 0 0-1.2h-6Zm0 2.4a.6.6 0 1 0 0 1.2h1.2a.6.6 0 1 0 0-1.2H5.4Zm3.6 0a.6.6 0 1 0 0 1.2h1.2a.6.6 0 1 0 0-1.2H9Zm3.6 0a.6.6 0 1 0 0 1.2h1.2a.6.6 0 1 0 0-1.2h-1.2Zm3.6 0a.6.6 0 1 0 0 1.2h1.2a.6.6 0 1 0 0-1.2h-1.2Z"></path>
</svg>